<?xml version="1.0" encoding="UTF-8"?>
<!DOCTYPE svg PUBLIC "-//W3C//DTD SVG 1.0//EN" "http://www.w3.org/TR/2001/REC-SVG-20010904/DTD/svg10.dtd">
<!-- Creator: CorelDRAW 2020 (64-Bit) -->
<svg xmlns="http://www.w3.org/2000/svg" xml:space="preserve" width="193.675mm" height="57.4274mm" version="1.0" style="shape-rendering:geometricPrecision; text-rendering:geometricPrecision; image-rendering:optimizeQuality; fill-rule:evenodd; clip-rule:evenodd"
viewBox="0 0 19449.85 5767.17"
 xmlns:xlink="http://www.w3.org/1999/xlink"
 xmlns:xodm="http://www.corel.com/coreldraw/odm/2003">
 <defs>
  <style type="text/css">
   <![CDATA[
    .fil0 {fill:black;fill-rule:nonzero}
   ]]>
  </style>
 </defs>
 <g id="Capa_x0020_1">
  <metadata id="CorelCorpID_0Corel-Layer"/>
  <g id="_2976177031040">
   <path class="fil0" d="M4939.86 2008.47l-333.69 0c-35.94,-43.2 -54.1,-165.94 -54.1,-368.18l0 -2.18 1.82 -91.51c1.82,-127.08 2.54,-191.71 2.54,-194.62 0,-51.92 -34.13,-77.7 -102.39,-77.7l0 732.01 -335.5 0 0 -1525.02 413.56 0c94.41,0 176.47,21.79 246.18,65 70.08,43.2 104.94,111.47 104.94,204.79l0 183.01c0,118.36 -68.99,198.25 -207.34,240.01 138.35,32.68 207.34,116.93 207.34,252.35l-4.36 167.04c0,243.99 20.33,382.34 61,415.02zm-383.43 -1000.34l0 -250.91c0,-53.37 -34.13,-79.87 -102.39,-79.87l0 411.75c68.26,0 102.39,-26.87 102.39,-80.97zm1086.75 998.16l-655.76 0 0 -1525.02 651.41 0 0 196.08 -315.91 0 0 411.75 285.04 0 0 185.17 -285.04 0 0 535.94 320.26 0 0 196.07zm52.65 -611.46l305 0 0 350.02c0,34.86 21.06,52.29 63.18,52.29 40.67,0 61.01,-17.43 61.01,-51.92l0 -180.46c0,-55.18 -37.04,-120.19 -110.75,-194.62 -142.69,-137.97 -231.3,-230.93 -266.15,-278.13 -34.86,-47.57 -52.29,-99.49 -52.29,-156.49l0 -171.02c0,-197.53 129.63,-296.29 388.52,-296.29 232.02,0 347.85,90.04 347.85,270.13l0 263.99 -305 0 0 -279.59c0,-30.14 -17.07,-45.38 -51.21,-45.38 -39.93,0 -59.9,28.68 -59.9,86.05l6.53 99.12c0,56.64 37.77,122.37 113.3,197.53 140.15,133.99 229.47,227.3 267.6,280.31 38.12,53.39 57,113.29 57,180.83l0 194.26c0,202.61 -129.63,303.92 -389.25,303.92 -250.17,0 -375.44,-92.23 -375.44,-276.69l0 -347.84zm1535.54 -715.3l-187.36 0 0 1326.76 -335.5 0 0 -1326.76 -187.35 0 0 -198.26 710.22 0 0 198.26zm969.84 1326.76l-333.32 0 -56.28 -409.57 -148.15 0 -57 409.57 -333.33 0 249.82 -1525.02 428.09 0 250.17 1525.02zm-416.46 -620.9l-47.93 -455.33 -45.75 455.33 93.69 0zm466.58 -904.12l335.5 0 0 1278.84c0,30.5 18.88,45.75 56.28,45.75 36.69,0 54.83,-15.25 54.83,-45.75l0 -1278.84 335.5 0 0 1261.77c0,87.86 -36.67,155.77 -109.65,204.06 -72.98,48.28 -166.66,72.26 -280.68,72.26 -106.02,0 -197.53,-21.79 -275.23,-65 -77.7,-43.21 -116.55,-112.93 -116.55,-209.15l0 -1263.95zm1680.07 1527.2l-333.69 0c-35.94,-43.2 -54.1,-165.94 -54.1,-368.18l0 -2.18 1.81 -91.51c1.83,-127.08 2.55,-191.71 2.55,-194.62 0,-51.92 -34.13,-77.7 -102.4,-77.7l0 732.01 -335.5 0 0 -1525.02 413.57 0c94.41,0 176.47,21.79 246.18,65 70.08,43.2 104.93,111.47 104.93,204.79l0 183.01c0,118.36 -68.99,198.25 -207.34,240.01 138.35,32.68 207.34,116.93 207.34,252.35l-4.36 167.04c0,243.99 20.34,382.34 61.01,415.02zm-383.43 -1000.34l0 -250.91c0,-53.37 -34.13,-79.87 -102.4,-79.87l0 411.75c68.27,0 102.4,-26.87 102.4,-80.97zm1337.28 998.16l-333.32 0 -56.28 -409.57 -148.15 0 -57 409.57 -333.33 0 249.82 -1525.02 428.09 0 250.17 1525.02zm-416.46 -620.9l-47.93 -455.33 -45.75 455.33 93.69 0zm1322.76 620.9l-344.58 0 -230.58 -812.62 0 812.62 -278.85 0 0 -1525.02 381.25 0 193.89 695.34 0 -695.34 278.86 0 0 1525.02zm770.87 -1326.76l-187.36 0 0 1326.76 -335.5 0 0 -1326.76 -187.35 0 0 -198.26 710.22 0 0 198.26zm719.3 1326.76l-655.75 0 0 -1525.02 651.4 0 0 196.08 -315.9 0 0 411.75 285.03 0 0 185.17 -285.03 0 0 535.94 320.25 0 0 196.07z"/>
   <path class="fil0" d="M19449.85 3170.98c0,241 -80.82,443.79 -243.21,606.91 -161.64,163.85 -364.43,245.4 -606.91,245.4 -209.4,0 -404.1,-73.47 -584.85,-220.42 -180.76,-146.94 -271.13,-357.83 -271.13,-631.89 0,-238.79 83.02,-440.85 248.34,-603.97 166.05,-163.84 368.11,-245.4 607.63,-245.4 147.7,0 284.35,32.33 409.27,96.98 124.9,64.66 229.24,161.64 313.73,292.43 84.5,130.79 127.12,283.62 127.12,459.96zm-141.08 0c0,-199.11 -68.33,-367.38 -205.73,-503.31 -136.66,-136.66 -304.92,-204.99 -504.05,-204.99 -202.05,0 -371.78,67.6 -508.44,202.8 -137.39,134.45 -205.72,303.45 -205.72,505.5 0,202.79 68.33,371.78 205.72,507.72 136.66,135.93 306.4,203.53 508.44,203.53 124.92,0 238.8,-26.46 343.13,-79.37 103.6,-53.63 191.04,-134.45 261.58,-243.93 69.8,-108.74 105.07,-238.07 105.07,-387.95zm-380.6 583.39l-259.37 0c-28.65,-31.59 -43.34,-85.22 -43.34,-161.64l17.62 -252.02c0,-97.72 -30.85,-146.21 -92.57,-146.21l0 555.47 -260.1 0 0 -1159.44 315.95 0c177.07,0 265.98,69.06 265.98,206.46l0 137.4c0,90.37 -50.7,152.09 -151.36,185.14 112.42,25.73 168.99,109.49 168.99,252.03l-13.22 236.59c0,72.75 16.89,121.98 51.43,146.21zm-302.71 -762.67l0 -187.35c0,-39.68 -24.99,-59.52 -74.95,-59.52l0 308.6c49.96,0 74.95,-20.58 74.95,-61.72z"/>
   <path class="fil0" d="M8334.64 5514.37l-1326.95 0 0 -3085.96 1318.13 0 0 396.77 -639.23 0 0 833.21 576.77 0 0 374.72 -576.77 0 0 1084.5 648.05 0 0 396.76zm723.75 0l-612.79 0 0 -3085.96 612.79 0 0 3085.96zm2199.85 -2689.19l-590.73 0 0 833.21 528.28 0 0 374.72 -528.28 0 0 1481.26 -678.92 0 0 -3085.96 1269.65 0 0 396.77zm1556.22 1224.83l-612.79 0 0 -542.25c0,-75.68 -35.27,-113.88 -105.81,-113.88 -70.54,0 -105.8,36.73 -105.8,109.47l0 2011.02 -612.79 0 0 -2499.63 612.79 0 0 83.76c81.56,-67.61 207.93,-101.4 379.13,-101.4 121.97,0 226.3,32.33 313.74,97.72 87.44,65.39 131.53,151.36 131.53,257.89l0 697.28zm1565.02 1464.36l-541.51 0 0 -96.98c-46.29,88.16 -177.8,132.25 -393.83,132.25 -334.32,0 -501.84,-130.78 -501.84,-392.35l0 -501.84c0,-111.68 40.41,-209.42 121.97,-293.17 80.83,-83.03 243.94,-187.36 489.34,-312.27 141.81,-72.01 213.08,-129.31 213.08,-171.93l0 -370.32c0,-81.56 -35.26,-122.7 -105.8,-122.7 -80.82,0 -120.5,99.92 -120.5,299.04 0,36.01 1.47,88.91 5.87,159.45 5.87,70.54 8.82,123.44 8.82,159.44l-590.74 0 0 -499.63c0,-337.25 243.94,-506.24 731.08,-506.24 456.29,0 684.06,175.6 684.06,527.55l0 1989.71zm-612.79 -466.57l0 -644.38c-141.07,34.54 -211.61,97.72 -211.61,189.57l0 454.81c0,75.68 36.74,113.88 110.22,113.88 67.59,0 101.39,-38.2 101.39,-113.88zm2190.31 466.57l-612.79 0 0 -2006.61c0,-75.68 -35.27,-113.88 -105.81,-113.88 -70.53,0 -105.81,36.73 -105.81,109.47l0 2011.02 -612.79 0 0 -2499.63 612.79 0 0 83.76c81.57,-67.61 207.94,-101.4 379.15,-101.4 110.21,0 212.33,30.13 305.64,90.38 93.33,60.25 139.61,148.41 139.61,265.23l0 2161.65zm1847.17 0l-722.26 0 -371.05 -898.61 0 898.61 -612.79 0 0 -3085.96 612.79 0 0 1385.01 310.8 -798.67 632.63 0 -441.59 1094.04 591.48 1405.58z"/>
   <g>
    <path class="fil0" d="M330.53 1443.92c201.68,341.11 635.17,748.97 635.17,748.97 0,0 -319.45,-410.43 -502.26,-801.01 -63.66,-142.51 -113.93,-304.59 -140.77,-447.67 -37.4,-197.76 50.68,-413.78 259.81,-485.78 327.5,-112.58 518.31,300.09 627.52,525.34 68.68,141.81 128.99,290.56 189.52,439.9l17.61 117.94 35.63 -117.55c55.56,-183.28 127.15,-363.42 210.1,-534.62 84.87,-169.82 181.92,-334.91 307.79,-466.14 62.76,-64.94 132.09,-121.15 206.97,-158.62 74.86,-37.54 154.61,-54.77 234.37,-48.92 230.67,16.1 410.9,178.79 413.14,415.78 1.28,138.14 -52.99,271.52 -124.04,389.95 -315.87,525.73 -840.64,847.14 -1293.51,1242.42 -524.29,457.75 -1124.7,994.77 -1285.17,1701.62 -47.96,201.96 -40.04,425.17 40.19,620.55 39.79,97.91 93.03,186.38 159.08,268.14 69.75,80.87 150.55,144.94 239.66,197.53 89.68,51.35 187.78,86.41 287.53,105.46 100.02,18.97 201.7,19.78 300.66,9.46 197.84,-22.01 387.13,-88.24 554.64,-186.81 -177.67,77.66 -369.03,122.67 -558.42,126.67 -189.1,3.2 -376.46,-43.23 -526.99,-146.69 -74.63,-51.32 -142.06,-116.56 -194.99,-185.75 -51.32,-72.7 -94.24,-155.18 -122.02,-239.24 -57.17,-169.59 -50.36,-352.14 -2.47,-525.35 47.95,-173.9 135.95,-338.67 240.2,-492.65 229.32,-338.78 531.73,-595.63 842.48,-856.67 334.3,-280.71 691.88,-532.3 1027.05,-810.7 273.36,-226.9 541.11,-514.1 672.75,-848.97 261.81,-706.75 -374.57,-1240.17 -987.51,-890.19 -96.24,54.92 -175.01,128.74 -240.99,208.49 -131.33,160.78 -222.27,341.08 -293.53,525.57 -51.1,131.96 -92.15,266.16 -124.75,402.6 -15.71,-108.34 -38.83,-215.46 -67.98,-322.04 -46.78,-159.5 -104.65,-318.82 -199.78,-468.39 -47.48,-74.56 -104.4,-147.41 -180.48,-210.42 -75.1,-61.82 -176.87,-114.83 -290.49,-120.2 -113.21,-7.36 -218.98,30.34 -302.41,79.75 -41.4,25.07 -81.18,51.98 -119.95,88.73 -37.23,34.75 -70.21,75.83 -97.28,120.18 -54.99,89.04 -80.55,192.01 -85.02,287.93 -4.66,96.49 9.28,188.25 31.29,274.09 44.69,172.29 121.54,324.58 207.63,467.34z"/>
    <path class="fil0" d="M-0 5367.14c18.89,223.57 505.39,400.03 767.22,400.03l4883.97 0c261.9,0 748.4,-176.47 767.22,-400.03l-6418.41 0z"/>
    <path class="fil0" d="M3540.17 2191.77c82.86,10.39 158.53,-48.36 168.96,-131.17 10.32,-82.86 -48.36,-158.44 -131.17,-168.86 -82.86,-10.49 -158.54,48.27 -168.94,131.16 -10.34,82.78 48.34,158.36 131.15,168.87z"/>
    <path class="fil0" d="M5420.43 4101.89c-10.57,2 -22.1,-3.77 -28.6,-13.44 -82.93,-123.47 -165.09,-243.8 -251.8,-360.56 -22.26,-28.82 -44.28,-57.56 -65.91,-86.64l-67.73 -84.86c-45.08,-56.63 -92.4,-111.3 -140.19,-165.28 -95.7,-108.08 -197.72,-209.85 -304.68,-306.02 -107.46,-95.85 -220.76,-184.23 -340.84,-267.34 -12.41,-8.5 -17.45,-24.58 -11.21,-36.04 5.04,-9.29 16.32,-12.48 26.89,-8.72 137.31,49.64 269.18,126.58 391.45,217.14 122.84,90.4 235.51,196.25 338.61,309.94 51.25,57.08 99.21,116.98 145.96,177.51 44.78,62.05 88.73,124.43 128.19,189.36 79.69,129.32 147.1,265.02 194.83,405.07 4.73,14.03 -1.93,27.4 -14.97,29.87zm-1893.63 -1803.3c-1439.66,-180.9 -2754.23,825.26 -2962.4,2254.65l5274.71 662.97c151.95,-1436.49 -872.6,-2736.68 -2312.31,-2917.62z"/>
   </g>
  </g>
 </g>
</svg>
